PathFileType	3	(X/Y/Z)	D:\minhoCalibration\240510\subject3_KPNP\preferred\preferred20.trc
DataRate	CameraRate	NumFrames	NumMarkers	Units	OrigDataRate	OrigDataStartFrame	OrigNumFrames
200.0	200.0	15	10	mm	200.0	130	146	
Frame#	Time	Left_Ankle_Outer1			Left_Ankle_Inner1			Left_Knee_Outer1			Left_Knee_Inner1			Left_Wrist1			Right_Wrist1			Right_Knee_Inner1			Right_Knee_Outer1			Right_Ankle_Inner1			Right_Ankle_Outer1			
		X1	Y1	Z1	X2	Y2	Z2	X3	Y3	Z3	X4	Y4	Z4	X5	Y5	Z5	X6	Y6	Z6	X7	Y7	Z7	X8	Y8	Z8	X9	Y9	Z9	X10	Y10	Z10	
130	0.64	-362.75159	66.089592	-525.45599	-419.01779	75.10434	-526.54651	-282.7738	489.10867	-396.03098	-388.85907	494.01541	-393.26123	-226.92558	853.49512	-562.534	-571.31879	872.54645	-667.0329	-622.55511	424.45383	-727.98511	-689.59229	507.01059	-782.55243	-467.81219	179.83119	-1033.0479	-534.58392	224.8761	-1097.6772
131	0.645	-363.09201	65.659698	-524.85974	-418.57239	75.371384	-526.37933	-280.29626	488.14304	-394.73151	-386.08997	493.18686	-391.06772	-224.07394	854.68005	-560.37732	-570.71497	875.39844	-656.4187	-628.20984	426.69669	-712.04333	-695.43079	509.65399	-766.27405	-474.99185	190.91295	-1027.1388	-547.47992	239.1152	-1087.9403
132	0.65	-361.71939	66.181229	-525.48889	-418.17084	75.727127	-526.22485	-277.68765	487.16309	-393.69516	-383.17587	492.54495	-388.92099	-220.46709	855.96869	-558.64166	-569.12775	879.44781	-645.95984	-633.55609	429.47766	-694.42963	-700.89948	512.37439	-749.25934	-482.14871	202.80475	-1020.5317	-558.60327	250.5208	-1077.5079
133	0.655	-362.07428	65.894226	-525.0318	-417.72766	76.134781	-526.19421	-274.80582	486.21622	-393.06897	-380.12097	491.59921	-386.76999	-216.68527	857.19922	-556.75745	-568.71893	882.26337	-635.57611	-637.72516	432.4238	-676.60742	-706.01996	515.13019	-731.67645	-489.56351	215.52997	-1012.8652	-569.38672	254.07767	-1066.4697
134	0.66	-361.45261	66.219902	-525.22699	-417.39169	76.491669	-525.92706	-272.25763	485.36447	-392.66949	-377.2457	491.04568	-385.13507	-213.49997	858.38025	-555.45001	-568.10791	885.69373	-625.45044	-641.18787	435.54596	-658.13599	-710.70728	517.96423	-713.21368	-497.01599	229.11906	-1004.3173	-582.70428	268.92694	-1055.8932
135	0.665	-361.43964	66.104309	-524.92798	-416.9581	77.004662	-525.82556	-269.59225	484.61542	-392.70969	-374.17569	490.43353	-383.61496	-210.1519	859.60321	-553.97632	-566.38995	889.37823	-615.59363	-643.55231	438.80939	-639.7074	-714.72058	520.61017	-693.02881	-504.12183	243.81166	-994.62555	-594.72778	279.88095	-1042.8401
136	0.67	-360.95242	66.439728	-525.04901	-416.5401	77.411072	-525.69769	-267.07391	484.04785	-392.92584	-371.38275	490.0838	-382.35489	-207.24268	860.83325	-552.93304	-564.91937	893.17535	-605.7533	-644.94995	442.3158	-620.65887	-718.94446	523.67798	-673.11591	-510.71423	259.2135	-984.19586	-603.48901	286.05753	-1031.246
137	0.675	-361.04773	66.476036	-524.69	-416.01373	77.954407	-525.59406	-264.61862	483.54996	-393.47711	-368.26239	489.74332	-381.15408	-204.1337	861.99078	-551.91034	-563.35175	897.08954	-596.24353	-644.92529	445.49179	-603.3645	-722.80188	527.19806	-652.46088	-516.7392	275.03424	-973.08313	-612.67981	298.15921	-1017.9072
138	0.68	-360.66083	66.831802	-524.68445	-415.59644	78.559319	-525.466	-262.11636	483.3735	-394.44791	-365.83658	490.03751	-380.24384	-200.93021	863.40985	-551.14587	-561.84467	901.1665	-587.1449	-645.40485	449.45776	-583.74908	-726.39117	531.05872	-631.33936	-523.96289	290.40244	-960.03937	-623.23969	309.76196	-1000.0677
139	0.685	-360.28528	67.198044	-524.69617	-415.11319	79.20137	-525.36218	-259.77142	483.26706	-395.52423	-363.11856	489.82669	-379.93832	-198.3696	864.66791	-550.54016	-559.52612	905.54126	-578.28607	-644.31775	453.34253	-565.68115	-729.33795	535.56677	-609.8512	-530.4043	305.67233	-945.82318	-629.11304	325.2023	-985.85205
140	0.69	-359.86533	67.760323	-524.63251	-414.69382	79.953918	-525.20844	-258.00076	483.24109	-396.57748	-360.75833	490.34967	-379.5101	-195.71887	866.07904	-550.25696	-557.62714	910.06049	-569.48767	-642.58105	457.43771	-547.22125	-732.18195	540.64423	-586.56421	-538.03058	320.31314	-930.28271	-637.84882	339.35651	-968.95325
141	0.695	-359.12836	68.537254	-524.82227	-414.28391	80.798393	-525.07013	-256.07935	483.48749	-397.80106	-358.27448	490.61032	-379.38412	-193.24812	867.51611	-550.13599	-554.52722	915.36639	-560.71289	-640.53564	462.40439	-529.14545	-733.97858	546.50684	-564.48907	-545.11371	334.20309	-913.85028	-644.94904	354.9845	-951.45282
142	0.7	-358.78589	69.342682	-524.68719	-413.91116	81.742767	-524.84399	-254.26352	483.97748	-399.14066	-356.34976	491.40833	-379.15701	-191.18381	868.89862	-550.13312	-552.54822	919.86658	-552.58051	-638.31512	467.70895	-511.02991	-735.52759	553.00983	-539.18176	-551.94006	348.30298	-897.32544	-653.74298	371.89316	-930.64117
143	0.705	-358.61078	70.08812	-524.54095	-413.56888	82.688461	-524.47363	-252.57527	484.57581	-400.44418	-354.02112	492.16718	-379.47137	-189.05368	870.41205	-550.54254	-549.61774	925.10834	-544.52795	-636.08234	473.54669	-492.70557	-736.10657	560.23578	-514.76923	-558.80408	362.12415	-880.13159	-659.01166	387.46301	-914.77301
144	0.71	-358.67719	71.016769	-524.14575	-413.25558	83.836136	-524.1698	-250.98595	485.35025	-401.75504	-352.22385	492.84384	-379.40924	-187.01469	871.87665	-551.11835	-545.72003	930.72437	-536.70831	-633.96613	480.13425	-474.17438	-735.89404	568.30988	-490.1546	-566.12292	375.85336	-862.52686	-666.46545	404.74905	-894.11548
